<?xml version="1.0" encoding="utf-8"?>
<!-- Generator: Adobe Illustrator 24.0.0, SVG Export Plug-In . SVG Version: 6.00 Build 0)  -->
<svg version="1.1" xmlns="http://www.w3.org/2000/svg" xmlns:xlink="http://www.w3.org/1999/xlink" x="0px" y="0px"
	 viewBox="0 0 1122 1122" style="enable-background:new 0 0 1122 1122;" xml:space="preserve">
<style type="text/css">
	.st0{fill:#FFFFFF;}
	.st1{fill:#7CB2AB;}
	.st2{fill:#D9E2ED;}
	.st3{fill:#F4F4F6;}
	.st4{fill:#648495;}
	.st5{fill:#FF9675;}
	.st6{opacity:0.5;fill:#7CB2AB;}
	.st7{fill:#00A99D;}
</style>
<g id="Bg">
	<rect class="st0" width="1122" height="1122"/>
</g>
<g id="object">
	<g>
		<g>
			<path class="st1" d="M835.54,756.62H286.46c-16.21,0-29.36-13.14-29.36-29.36V351.86c0-16.21,13.14-29.36,29.36-29.36h549.08
				c16.21,0,29.36,13.14,29.36,29.36v375.41C864.9,743.48,851.76,756.62,835.54,756.62z"/>
			<rect x="283.9" y="358.9" class="st2" width="554.2" height="361.33"/>
			<ellipse class="st3" cx="561" cy="340.52" rx="7.58" ry="7.88"/>
		</g>
		<g>
			<path class="st4" d="M884.33,799.5H237.67c-14.73,0-26.67-11.94-26.67-26.67v-16.2h700v16.2
				C911,787.56,899.06,799.5,884.33,799.5z"/>
			<path class="st3" d="M607.12,768.34h-92.25c-2.95,0-5.35-2.39-5.35-5.35v-6.37h102.94v6.37
				C612.47,765.94,610.08,768.34,607.12,768.34z"/>
		</g>
		<rect x="283.9" y="358.9" class="st5" width="554.2" height="37.17"/>
		<rect x="497.02" y="439.17" class="st3" width="148.1" height="95.24"/>
		<rect x="668.86" y="439.17" class="st3" width="148.1" height="95.24"/>
		<rect x="305.03" y="439.17" class="st3" width="170.86" height="243.66"/>
		<rect x="497.02" y="556.53" class="st3" width="319.94" height="25.18"/>
		<rect x="497.02" y="604.47" class="st3" width="319.94" height="25.18"/>
		<g>
			<g>
				<polygon class="st6" points="365.56,600.01 411.14,541.69 456.77,600.06 				"/>
				<polygon class="st1" points="324.16,600 377.93,531.21 431.75,600.06 				"/>
			</g>
			<ellipse class="st5" cx="398.09" cy="531.21" rx="8.92" ry="9.28"/>
		</g>
	</g>
	<g>
		<g>
			<path class="st7" d="M296.64,838.82c-0.36,1.86-2.16,8.1-2.76,9.96h-27.9v-1.68c5.46-0.54,5.94-0.84,5.94-5.94v-23.82
				c0-5.1-0.6-5.4-5.4-5.88v-1.68h16.08v1.68c-4.8,0.48-5.46,0.72-5.46,5.88v24.42c0,3.66,0.48,4.5,3.9,4.56
				c0.06,0,4.38,0.06,4.74,0.06c3.06,0,3.96-0.36,5.34-1.86c1.5-1.56,2.76-3.96,3.66-6.18L296.64,838.82z"/>
			<path class="st7" d="M313.5,821.72c7.5,0,13.08,5.7,13.08,13.44c0,9.72-7.2,14.34-13.08,14.34c-8.28,0-13.32-6.66-13.32-13.38
				C300.18,826.34,307.8,821.72,313.5,821.72z M312.78,823.76c-3.66,0-6.96,3.54-6.96,10.5c0,7.62,3.36,13.14,8.28,13.14
				c3.72,0,6.84-2.7,6.84-10.92C320.94,829.46,318.06,823.76,312.78,823.76z"/>
			<path class="st7" d="M330.3,823.7c2.82-0.42,5.94-1.44,8.7-2.58c0,1.44,0,3.36,0,4.8c0.18-0.12,4.98-2.88,5.22-3
				c1.44-0.78,2.7-1.2,3.48-1.2c6.6,0,10.62,5.52,10.62,11.46c0,9.12-7.2,14.88-15.06,16.32c-1.8-0.06-3.42-0.6-4.26-1.08v8.1
				c0,4.44,0.48,4.8,5.1,5.22v1.68h-14.22v-1.68c3.9-0.42,4.38-0.72,4.38-4.74v-27.3c0-3.6-0.12-3.84-3.96-4.38V823.7z M339,844.22
				c1.38,1.38,3.72,2.34,5.7,2.34c5.22,0,8.58-4.38,8.58-11.1c0-6.48-3.78-10.14-8.04-10.14c-2.1,0-4.62,1.38-6.24,2.58V844.22z"/>
			<path class="st7" d="M376.38,821.72c7.5,0,13.08,5.7,13.08,13.44c0,9.72-7.2,14.34-13.08,14.34c-8.28,0-13.32-6.66-13.32-13.38
				C363.06,826.34,370.68,821.72,376.38,821.72z M375.66,823.76c-3.66,0-6.96,3.54-6.96,10.5c0,7.62,3.36,13.14,8.28,13.14
				c3.72,0,6.84-2.7,6.84-10.92C383.82,829.46,380.94,823.76,375.66,823.76z"/>
			<path class="st7" d="M405.48,848.72c-1.02,0.54-1.98,0.78-2.58,0.78c-3.84,0-5.88-2.34-5.88-7.14V824.9h-4.14l-0.24-0.72
				l1.62-1.74h2.76v-5.04c1.14-1.2,2.88-2.76,4.02-3.96l0.9,0.12c-0.12,2.52-0.18,6-0.18,8.88h6.84c0.54,0.6,0.36,1.92-0.36,2.46
				h-6.48v15.36c0,4.86,1.92,5.76,3.48,5.76c1.44,0,2.82-0.54,3.66-0.96l0.54,1.56L405.48,848.72z"/>
			<path class="st7" d="M425.58,821.72c7.5,0,13.08,5.7,13.08,13.44c0,9.72-7.2,14.34-13.08,14.34c-8.28,0-13.32-6.66-13.32-13.38
				C412.26,826.34,419.88,821.72,425.58,821.72z M424.86,823.76c-3.66,0-6.96,3.54-6.96,10.5c0,7.62,3.36,13.14,8.28,13.14
				c3.72,0,6.84-2.7,6.84-10.92C433.02,829.46,430.14,823.76,424.86,823.76z"/>
			<path class="st7" d="M442.38,823.7c2.82-0.42,5.94-1.44,8.7-2.58c0,1.44,0,3.36,0,4.8c0.18-0.12,4.98-2.88,5.22-3
				c1.44-0.78,2.7-1.2,3.48-1.2c6.6,0,10.62,5.52,10.62,11.46c0,9.12-7.2,14.88-15.06,16.32c-1.8-0.06-3.42-0.6-4.26-1.08v8.1
				c0,4.44,0.48,4.8,5.1,5.22v1.68h-14.22v-1.68c3.9-0.42,4.38-0.72,4.38-4.74v-27.3c0-3.6-0.12-3.84-3.96-4.38V823.7z
				 M451.08,844.22c1.38,1.38,3.72,2.34,5.7,2.34c5.22,0,8.58-4.38,8.58-11.1c0-6.48-3.78-10.14-8.04-10.14
				c-2.1,0-4.62,1.38-6.24,2.58V844.22z"/>
			<path class="st7" d="M488.46,821.72c7.5,0,13.08,5.7,13.08,13.44c0,9.72-7.2,14.34-13.08,14.34c-8.28,0-13.32-6.66-13.32-13.38
				C475.14,826.34,482.76,821.72,488.46,821.72z M487.74,823.76c-3.66,0-6.96,3.54-6.96,10.5c0,7.62,3.36,13.14,8.28,13.14
				c3.72,0,6.84-2.7,6.84-10.92C495.9,829.46,493.02,823.76,487.74,823.76z"/>
			<path class="st7" d="M562.26,811.46c-4.98,0.48-5.46,0.78-5.46,5.82v24.06c0,5.04,0.54,5.22,5.46,5.76v1.68h-16.08v-1.68
				c4.98-0.6,5.46-0.72,5.46-5.76v-12h-20.52v12c0,4.98,0.48,5.16,5.4,5.76v1.68H520.5v-1.68c4.86-0.54,5.4-0.72,5.4-5.76v-24.06
				c0-5.04-0.54-5.34-5.4-5.82v-1.68h16.02v1.68c-4.8,0.42-5.4,0.84-5.4,5.82v9.54h20.52v-9.54c0-4.98-0.66-5.4-5.46-5.82v-1.68
				h16.08V811.46z"/>
			<path class="st7" d="M580.5,821.72c7.5,0,13.08,5.7,13.08,13.44c0,9.72-7.2,14.34-13.08,14.34c-8.28,0-13.32-6.66-13.32-13.38
				C567.18,826.34,574.8,821.72,580.5,821.72z M579.78,823.76c-3.66,0-6.96,3.54-6.96,10.5c0,7.62,3.36,13.14,8.28,13.14
				c3.72,0,6.84-2.7,6.84-10.92C587.94,829.46,585.06,823.76,579.78,823.76z"/>
			<path class="st7" d="M626.88,847.4c-2.88,0.42-6.12,1.2-9.18,2.1c0-0.96,0-3.12,0-4.62c-3.24,2.7-5.88,4.62-9.18,4.62
				c-4.02,0-7.5-2.46-7.5-9v-11.64c0-3.24-0.48-3.6-1.98-3.9l-1.68-0.3v-1.56c2.58-0.12,6.54-0.72,8.58-1.08
				c-0.18,1.92-0.18,4.8-0.18,8.76v8.16c0,5.28,2.76,6.78,5.46,6.78c2.22,0,4.44-0.96,6.48-2.88v-13.98c0-3.24-0.72-3.66-2.76-3.96
				l-1.92-0.24v-1.56c3.84-0.18,8.04-0.84,9.42-1.08v20.1c0,3,0.48,3.42,2.76,3.54l1.68,0.06V847.4z"/>
			<path class="st7" d="M645.54,829.58c-1.08-3.48-2.64-5.88-6.3-5.88c-2.1,0-3.72,1.5-3.72,3.9c0,2.58,1.74,3.78,5.1,5.34
				c5.16,2.46,7.74,4.26,7.74,8.22c0,5.52-5.04,8.34-9.78,8.34c-3.12,0-5.88-0.96-7.14-1.68c-0.3-1.74-0.84-5.04-1.08-7.02l1.74-0.3
				c1.08,3.84,3.18,6.96,7.38,6.96c2.28,0,4.2-1.56,4.2-4.08c0-2.7-1.62-4.08-4.8-5.64c-4.2-2.04-7.62-3.96-7.62-8.28
				c0-4.38,3.72-7.74,9.36-7.74c2.52,0,4.56,0.6,5.76,0.78c0.18,1.44,0.6,5.22,0.9,6.66L645.54,829.58z"/>
			<path class="st7" d="M674.28,843.68c-3.84,4.8-8.04,5.82-9.96,5.82c-7.32,0-11.76-6-11.76-12.9c0-4.08,1.44-7.86,3.9-10.5
				c2.52-2.82,5.82-4.38,8.94-4.38c5.22,0,9.18,4.5,9.18,9.3c-0.06,1.2-0.24,1.74-1.2,1.98c-1.2,0.24-8.88,0.78-16.02,1.02
				c-0.18,8.04,4.74,11.34,9,11.34c2.46,0,4.74-1.02,6.96-3.06L674.28,843.68z M663.96,824c-2.76,0-5.46,2.58-6.3,7.44
				c3.36,0,6.72,0,10.26-0.18c1.08,0,1.44-0.3,1.44-1.2C669.42,826.88,667.32,824,663.96,824z"/>
			<path class="st7" d="M714.84,843.38c-2.64,3.48-6.66,6.12-10.26,6.12c-7.62,0-12.12-6.18-12.12-12.6c0-4.74,2.04-8.7,6.06-11.76
				c3.18-2.46,6.78-3.42,9.12-3.42c2.7,0,4.68,0.84,5.58,1.62c0.84,0.66,0.96,1.08,0.96,1.74c0,1.44-1.5,2.7-2.16,2.7
				c-0.3,0-0.54-0.12-1.14-0.6c-1.86-1.68-3.9-2.52-6.06-2.52c-3.96,0-7.44,3.36-7.44,9.6c-0.06,8.34,5.64,11.1,9.12,11.1
				c2.52,0,4.56-0.66,7.32-3.3L714.84,843.38z"/>
			<path class="st7" d="M739.86,843.68c-3.84,4.8-8.04,5.82-9.96,5.82c-7.32,0-11.76-6-11.76-12.9c0-4.08,1.44-7.86,3.9-10.5
				c2.52-2.82,5.82-4.38,8.94-4.38c5.22,0,9.18,4.5,9.18,9.3c-0.06,1.2-0.24,1.74-1.2,1.98c-1.2,0.24-8.88,0.78-16.02,1.02
				c-0.18,8.04,4.74,11.34,9,11.34c2.46,0,4.74-1.02,6.96-3.06L739.86,843.68z M729.54,824c-2.76,0-5.46,2.58-6.3,7.44
				c3.36,0,6.72,0,10.26-0.18c1.08,0,1.44-0.3,1.44-1.2C735,826.88,732.9,824,729.54,824z"/>
			<path class="st7" d="M760.98,848.78v-1.68c3.48-0.36,3.84-0.78,3.84-4.86v-9.9c0-4.2-1.5-7.02-5.46-7.02
				c-2.46,0-4.8,1.44-6.66,3.12v14.04c0,4.14,0.36,4.26,3.9,4.62v1.68h-12.96v-1.68c3.96-0.42,4.32-0.66,4.32-4.62v-12.36
				c0-3.9-0.42-4.08-3.66-4.62v-1.56c2.94-0.48,5.88-1.26,8.4-2.4c0,1.38,0,3.3,0,4.74c1.2-0.84,2.52-1.74,4.08-2.76
				c1.68-1.08,3.24-1.8,4.98-1.8c4.8,0,7.8,3.54,7.8,9.36v11.4c0,4.08,0.36,4.26,3.84,4.62v1.68H760.98z"/>
			<path class="st7" d="M788.7,848.72c-1.02,0.54-1.98,0.78-2.58,0.78c-3.84,0-5.88-2.34-5.88-7.14V824.9h-4.14l-0.24-0.72
				l1.62-1.74h2.76v-5.04c1.14-1.2,2.88-2.76,4.02-3.96l0.9,0.12c-0.12,2.52-0.18,6-0.18,8.88h6.84c0.54,0.6,0.36,1.92-0.36,2.46
				h-6.48v15.36c0,4.86,1.92,5.76,3.48,5.76c1.44,0,2.82-0.54,3.66-0.96l0.54,1.56L788.7,848.72z"/>
			<path class="st7" d="M817.19,843.68c-3.84,4.8-8.04,5.82-9.96,5.82c-7.32,0-11.76-6-11.76-12.9c0-4.08,1.44-7.86,3.9-10.5
				c2.52-2.82,5.82-4.38,8.94-4.38c5.22,0,9.18,4.5,9.18,9.3c-0.06,1.2-0.24,1.74-1.2,1.98c-1.2,0.24-8.88,0.78-16.02,1.02
				c-0.18,8.04,4.74,11.34,9,11.34c2.46,0,4.74-1.02,6.96-3.06L817.19,843.68z M806.88,824c-2.76,0-5.46,2.58-6.3,7.44
				c3.36,0,6.72,0,10.26-0.18c1.08,0,1.44-0.3,1.44-1.2C812.33,826.88,810.23,824,806.88,824z"/>
			<path class="st7" d="M834.89,848.78h-13.8v-1.68c3.78-0.36,4.14-0.66,4.14-4.56v-12.48c0-3.96-0.24-4.14-3.72-4.56V824
				c2.94-0.48,5.64-1.2,8.46-2.46c0,1.98,0,4.62,0,6.6c2.1-3.12,4.62-6.42,7.62-6.42c2.22,0,3.48,1.38,3.48,2.88
				c0,1.38-0.96,2.7-2.04,3.3c-0.6,0.36-1.08,0.3-1.56-0.12c-0.9-0.9-1.62-1.5-2.7-1.5c-1.26,0-3.48,1.86-4.8,4.92v11.28
				c0,3.96,0.3,4.26,4.92,4.62V848.78z"/>
		</g>
	</g>
</g>
</svg>
